<mxfile host="app.diagrams.net" agent="Mozilla/5.0 (Macintosh; Intel Mac OS X 10_15_7) AppleWebKit/537.36 (KHTML, like Gecko) Chrome/128.0.0.0 Safari/537.36" version="24.7.14">
  <diagram name="Side-1" id="Dw4dDgP6XQq8lzily10f">
    <mxGraphModel dx="2344" dy="930" grid="1" gridSize="10" guides="1" tooltips="1" connect="1" arrows="1" fold="1" page="1" pageScale="1" pageWidth="827" pageHeight="1169" math="0" shadow="0">
      <root>
        <mxCell id="0" />
        <mxCell id="1" parent="0" />
        <mxCell id="J4pD2en0OG8J45W_romX-2" value="&lt;b&gt;Energy innovation app&lt;/b&gt;" style="rounded=0;whiteSpace=wrap;html=1;verticalAlign=top;fontSize=24;align=right;shadow=1;" vertex="1" parent="1">
          <mxGeometry x="-250" y="100" width="1070" height="500" as="geometry" />
        </mxCell>
        <mxCell id="J4pD2en0OG8J45W_romX-15" style="edgeStyle=orthogonalEdgeStyle;rounded=0;orthogonalLoop=1;jettySize=auto;html=1;exitX=0.5;exitY=1;exitDx=0;exitDy=0;shadow=1;" edge="1" parent="1" source="J4pD2en0OG8J45W_romX-1" target="J4pD2en0OG8J45W_romX-6">
          <mxGeometry relative="1" as="geometry" />
        </mxCell>
        <mxCell id="J4pD2en0OG8J45W_romX-17" style="edgeStyle=orthogonalEdgeStyle;rounded=0;orthogonalLoop=1;jettySize=auto;html=1;exitX=0.5;exitY=1;exitDx=0;exitDy=0;entryX=0.5;entryY=0;entryDx=0;entryDy=0;shadow=1;" edge="1" parent="1" source="J4pD2en0OG8J45W_romX-1" target="J4pD2en0OG8J45W_romX-8">
          <mxGeometry relative="1" as="geometry" />
        </mxCell>
        <mxCell id="J4pD2en0OG8J45W_romX-1" value="" style="shape=image;verticalLabelPosition=bottom;labelBackgroundColor=default;verticalAlign=top;aspect=fixed;imageAspect=0;image=data:image/png,iVBORw0KGgoAAAANSUhEUgAAAScAAACrCAMAAAATgapkAAABJlBMVEX///+3x9f///27y9xrc3QmNzy6ytu+zt8nOT0kNzswP0Mquf8RWYW1xNMjNzoeMjassLI7SEsArfj5+fgtPUHh4uPs7e3X7vqJlaG5u7yrucfMzs+an6HGyMkWLjKKm6x+y/cztvcAr/hub3CfrLibqLSBiIknLC9SXWCOlJY/TE+mqauytbZdZmiTmJl2foB0gY1jbHQdICLj8/tFu/jw+fxdwfit3vrE5vgAAADLzM1yipxEeZgXbJU0b5FCaoMAdKYUn98AgbljdIIAj80eNEENpOgbRl0QP10PS3EAd60cX4UjQFU8OTgAR3YAPmQBLUEAJkJJYncOExgAJypUXmhCUFsAGiAvYH1PU1QAKlZSdo2G0Pe14fkUFxlye4M3iLZtkqvT9APQAAAJe0lEQVR4nO2biVbbSBaGtdgqWUaWZS1o8Y4sbxhLeMFNOp0QGAaSkJ50BxL3mDH9/i8xt+QVQ8LMOaRtp+93jm0tJU7p595ft0oSwyAIgiAIgiAIgiAIgiAIgiAIgiAIgiAIgiAIgiAIgiAIgiAIgiAIgiAIgiAIgiAIgmwhx+n9dXdhszHTL35++Ysv805s3V3ZaF69TgInrzzipNfdlw1Ge5N8eUKVenMqh+vuzAZjnCWTZ3fJ5PnJ63+MjXX3ZnM5PqfB9M+Li8udy6G57t5sLsZbqtO7HeBib92d2WTcVxBRF1Sn99q6+7LR2Fevu6DTh1/xcvcNtIZHvH99/K1+jNH0LfwKz/sGavQULcI67ro7sQXsCayDZdPXsdvDw8PhXtongoAG/hU0vzr2ZMAJVBUGdrmnDnCbTzQwmz+gxbm/W4QXWApPnMY1sZ5yKP2T/e0GsU/+s3VvU8hVWZ5dQKyqHD4hlJp6Sqf4D6eTcSiw9+Cdqqx+28vVxN9PpytnRSdWcKp89Sv+okXbFzpp2sruyfqqTubWD6nda8KuwlvjSuuRtlq2pqfUmDvTyWg3RL1Wn2uQrolKqkYnjGMi1akuRflr+mo+3/DnIer6NTX7nU/r2Rk6D2QCj7qq3Bw/aOqKophIiHreb0T+VM/rYiIO65OpdLOREFOJhJ7PTuPJVxR6XWzSZglRzE8vkn5ejCuP/Rs2Ga36MJwgoILQGq42dfOS0t63m6ouSVQnX9GlrG37ipSnhYSpw27b3W992p/o5CdEqkYzL4kHuVw2Lk2EisVFNdvcnjw0Ki8OTMZ4JO2oQ90UqqunAupMLoNtkV7vcnm9FZmRoUoitI3pysS06EbQqZ6KZDJmzbSYpEDqZVOJLbJ4rfnLSTlZfhvaAf+ITqxcLVyvVJv7CWVm3i0aTzVJnXq4EY9nQQ/xYNE4Jkm6HuVWW5cmzYyGlHcZLaFv0X0crfauTO+qnL08sL6mU7BitW2xNlt0lZSt5cX5+MYXG0xaFJcCMCap+qS5KE7+znFKysMBOUXZouFjPdi5eH1yd558a48f00lw1EKwkh61eH22qEE8mUsnbCcSTDZRW2oM8TRxakNJRHGZBpeiWbufULnveGLPTGDt7FzS209vjZtHfdy6LoxX4qkmflWnXDz1QCd9koWGkqI6HeQlKWqeTqjf8byem3HlQ6TTm5C5Wq0yo7pAtR74U1ucG4uhKK6WT80b1EWdaSakpZIT8k6ZCJUS4SrXTum1yd7t0qktBxeX5ye/QY3UnBrUslyCVy0UVivydDw1C6C2nteYoT4LIFPX2+DjqaX5GMg7aSJUTG+YLTEVm/617dJJ88Pw5ksrKiWrkTSOJYM+U68iUlB4sVoJaqLUmDh1U6HVth19U1r0QgbfyiICY2K7pUdCGXkpJS1Sdrt0AuywULDoQjRwcbTDukyyQRRVZHxTKEgPLks2WHHWMI9jqUlFEBPFmm0a+w1doTIYtAzNGa6v5ybjlpquUIurK6rUMtx0Iwq/rdOJcV9MdIoyD05NG2uunQWhSHBYKATth0fQylpRUnpiGlc1RUrR9fwkrqDw1BOwSlWj9bg21PO04vLBwxVF1D/Ro7ZPJ65QmBqK71CdDKoM6ERCMKfCkDFsezWkjFZcUZTFGDbdgFWlNZusMtsgo6K3Idjqn7O0SvscjfzcVmLeLPe5xmwXafZ05tQhqRtGm0ZXneeHkHSFG8NzZNnaW51d0Qz33nDGdA3z/u7pPa1IYm4mtObOD9u2e16GJ8+vT4ZFKhUi1+26Q67AtwrXhkc8j+XZ1hYVz9+HOrEW/9msIIAxCbJAwlOQKTSaf/58Vv7ZEeSPlTX2cQMwLbI0LkkLs8Lp1PO80EjvnJSSydIXlpxa6+vjJpCVhSWdmrzsyFSniiCQiss0P1xcnt3dnVjEqi8dxAF/eU/XS1tgFzqZgVeRpxHFV8Bx0x92di7Ok8lT3lnSabdfKhU7f31f10nIk/mEpTGseLwQpR7vBXSqMfcHjJOpTsRZqDnIFAeDYmZ3Lf1dFy1eKEyel9MOGnJABMcSWIe3LNkJoRrIvf/18vz85Zgs4kkrH0HSccUux3C93R5s6cAvBx+4HvQ0JtrEcLsdbumns7vliVojLF+R9up+SwUTqvCeD9EES8TxBJneQzi+/neuDcLNi4fbTHTKvQHH9culzBHHZUalZOmoVCp3mG6xRDdBo1K5D5qVYU+P47rlUnmwvpN8Bg4sAl4kVyoyLxDLInWfZ70msQSr7cvkOiqb7DEhjXkZOepOQoPjRiWO60D+lfscl4RPf8T0Sxq3m+n0MhBg/SLXP4q2FmHnILPdEXVlESiaeJ4nvKWOSR1Gw2nbEypO5bTGy3uaYQ8Dwlfmz7Jyo/70hLnSLXz3RxyIwnQhiIpFusbA8hG04QZlrt8FvTitPOj1elseUExbtRzH8azroa01SHhNhCwTZ3nBK4QeCcOxxRJiXS3aT+Opd8SVqZWPigy19O4RE+kEP/AFG+GymOF6xWSmD9FVomy3TsfZdqs1HLaaNMWuiKUSKKjc32G8UggLxHII4Z3G8qQBpBX9GSW56MyjeFrSicbT7agPewZJrgOJWexq0RGdLRvQ3acVOM64NjOfKnF+IoJ1zJh7khpWwb4rlSD07w15IZl6HKh1y4HtMB3QYFmnkgZ1Q49qSf2J5tptCZYgCzO9NZzec1GvEPBvJz6ZIjFVwv9k8Xykm6GGhA9yxw/u2Pa6mW43M4JKoFTqZ0bMvXiCEhQU5EaZfgnkvM30+5kBbdjNbHPaaTUojBxHIMF/DgzTPvQE0jiEwqDh72evxoRlH31Mgts9uoXgAKveHdAgiSokLvpA3nWiuOkMwNwh3G6h5bzh1mIEZAzfDlQGAVi2I7CkYYCTk8rYknmWtx73lMXwbnWcR8NqeccPMhI0T4l3QOegQBMoDOiceJUx686LuzufJaz1f886FW+/RzfXT0vmvTqdXZnejyIWFEoBvfN5/jJ86iHVvxGGKkfjYM23ZAIEV5Bpb+6iNxTPX2a3+lL+rJh7tcn0v9uqqmo1uiV5lzyJ3uU8uRyvtW8bija7FfAnaHT2+uTd5c4WPaG0Bkz66l307h3q9G38t9G7nB8fPpuJ3CP3pfzujxja+JNw7ff4Wtn/xI9QRyMIgiAIgiAIgiAIgiAIgiAIgiAIgiAIgiAIgiAIgiAIgiAIgiAIgiAIgiAIgiAIssJ/AX9/A+4pE2SIAAAAAElFTkSuQmCC;clipPath=inset(27.19% 23.56% 28.36% 24.92%);imageBorder=default;shadow=1;" vertex="1" parent="1">
          <mxGeometry x="164.24" y="150" width="241.52" height="120.76" as="geometry" />
        </mxCell>
        <mxCell id="J4pD2en0OG8J45W_romX-6" value="&lt;font style=&quot;font-size: 18px;&quot;&gt;&lt;b&gt;Backend docker container&lt;/b&gt;&lt;/font&gt;" style="rounded=0;whiteSpace=wrap;html=1;verticalAlign=top;shadow=1;" vertex="1" parent="1">
          <mxGeometry x="-230" y="340" width="450" height="240" as="geometry" />
        </mxCell>
        <mxCell id="J4pD2en0OG8J45W_romX-3" value="" style="shape=image;verticalLabelPosition=bottom;labelBackgroundColor=default;verticalAlign=top;aspect=fixed;imageAspect=0;image=data:image/png,iVBORw0KGgoAAAANSUhEUgAAAgsAAABgCAMAAACkLcFMAAAAaVBMVEX///8AlogFmIr6/f0Ak4UAkIFxuK8in5I+pZlns6k4opYAkIC329b1+vkAjX3q9fTh8O+AwLhdsafQ6OWYysSw19LB39tIp5zn8/LY6+mo0s2hz8nI4+C22tWQx8BUraJ6vbWTycIAhnWMmLdDAAARj0lEQVR4nO2d6ZaiOhCACSagInHBHbee93/IC7hQWakK4tye7voz54wNGvJRqS2VKMLJvNhcktU4rWW8Sr42RY688lf+JVmUEyY456ySOI7rfzjPBJscF3/7p/3KJ6VYxoI3DOhSESHi5eFv/8Bf+YzMv+LMysGLhwqH9e9q8e/LYVJpBA8ITxyy5Het+LflsMq6QXjgkK1+afhLMsr3h2K7OZblupKyPJ5Ph/norV+RJ2gS7jTc+q0UyYQoq+2bRvpXZbMKHs9iu75d05hLKe7Ca6n+zYTk6epy3mPusgaP1PEnJWJxUIXzDXEwiqScKLLX171LRj31IRhQSrnuayxkPfvMJRUVkk02864bJeL1A5j1D+bjjEhCrRrErodqSJ2jcoj42ywsZl+TVE573eMo2gFlFMUwdVMAgRBy1/GYkvZGse3zjaAqhQcNfEYYjirfioX9OplW72X1KvFdrxvFcOIoWI1RLDQ48KXvFe1gIQlQCg8RS+LDeMm3YuEsn0+wHwvnDI5InvBXolmof6P0zIqXhXzKg1GorIZdoAn7rViYvVR7PxbUQVPuRWGhelbcuf74WNjHYevDU1gaZjT8RBa2mTokiY/h0liobu1yEjwsLMj+gwED67RdbfITWdAnlK+CL+0Untqnxc3CghRUeCcMP5CFg9THJFEhgVpUFlRv2wEDt7q/Thb6a4VgGCALEiN/jvQveZe8h4WVMWv8hr0WshBPd9dJcls2cptcp0xmttADt02Li4Xcm4YiwBDTDUjAwni+wMhfzIi9hYW9oRYYy7CDAixYXNHRYnaZSqHdnFudRgcL6XtQqGAYk59MywKnX/xpeQsLN4syF1/Ii/0sNJKXqUYDtxiQDhZWfZxJVfDK7ik/joVccyIe90NejWChkm2s0iBN19LOQhkeYjJFnGlP5uex8NVOU9rOB9YixrEQRRd1ITJXCSsLC4GYYhvK8KuAZiDajz+OBfC2LoCxhMxQYVmICmUlEobBbWUBYyywlU8mU3ALqsnw01g4t7e4RmWrI5CBaDQL1TsOYTBQs7FwQRgLzD/wo0KTKFGDespPY6FNNMoiilrboSIDI3gWoi1cJuovU8TCwh6zQmSnaOSSaL7TbsFJTt8PY6F4TVCTnly2M4KLNxFYgNPNuJ6msrBwxawQqQeFmRGmYgnl4fwwFto4k6jz/PP23cW5YBQWcrhK6IuEycIJoxb4xsVCNJpYgteCUi7/HhbmxXZTfl0qWR9nB3I0Ki9mx+bq8lzsPfGy3iyAub/PAIhBCkygjsIC1DpMag/FZGGMUQuxE4UitlkbDLf03aUvC/PtepLeS//4s/BPxpMNmof5ccIkqBqUku2WZzvOvVloZ+dhVrVrBkMZWiQWYOJDaLapwQJOLaztLFQjc2S0MoJi6MPC6JwwaS3+40JeUaVjs50UZnqAi0zu1mZOp2WBcUe2ZO39uvb6pxYAbqW11kwTEgsRGJnuVRos7DDBZ57bUVikLheE4XOwvViwTCPEIe6Me81i9x0qnC7G3+uhfkP8L3db5viyDjYADwS9NBau7V/rxqPOwgETcaxuYkVh7UlzZ/iAUx8WuvLdcuxdKeY7S5YIzqsxN31ZaH+wfCkdoGoQ6w6NBWAwcM2i11m4YdRCtreRMN/5OOLGG4V4PHQWzOSvJlzobjWQk0+rNPNlEN2ThVPrULbTDlJVsrvQnsbCF2BB09U6C5icFJtY1EJ09hc8oJa+u/RhYdnFgi+cd/YrBWZbv3uy0KpsoHIWwK3sriCmsbAGSkcz6DUWthgWKjvQICFfddmcvvdRlT4sHDunhjGXHbvtRMGS6e3HguFQ3mVMcSuJLAC94GdhgnEodyYKp+7SF3br/qF36cPCCcECY9bnayko0evELNPajwXgUEJv4wysx86aLRoLF/QagVELlTLTPckbojaS2fdlWaQPC48JrV3A7O5bcmH4FrZCDn3/Ub3vbHpdra7jlGXicQeLbuvHAjAMcvv/d2craSyACdfDmioLBSK4YISfo4PTk1QZwu437BVrEs0s7pbHeotx8/6PFrMb1wo5LOuVslmFy+u5NRPzw7GJWjBhOiGQBWEV6Y4vtN6j9o5C67FrbaWxsAMsaOa8ygImQ6mFnyOvJ6lciM1W9mIhjm8zS0rnyOBbb7uvUnGbmB7wYj2VlncUsDA9FFZxZ5haVZSpBi0ID9qVGBAaCxBdrVhGZQERaKpUvepJjrHlcKxrUE/pxYJT+SRQNZhbUWBwljtexYNl7e4Tgz7YLcdapq7VwxQSCwVkQRumygJiieBfkIVogy+dRxsMA+UpL2ARMF01YFMhfPpW+rCQ2C3HWoA/ZHymyTC5qQUi6ChA+BnhSSqXIkOPQ+WsYfLeCBS06yjCpQfSgwVQ8mrEsEbC81tVobAwQuesEdEFdmvVAsaThJIhNw8DFvptY9cF1GgaZSLtR6T8eh8W2nI2SwUTmJiO50ZhARbfG5FghYWym4VsQfMkoWC7tcA83a5LpoTKBOi2a0mqEUgUk3b39GChRdOSggKZ6469lQQWTkqNm868wsKyO2C0eqqFqOAy06Sjbwc2JQEt+u7+PJQqFXBfbSGA1UQfYuEEKhstH4On4B8jnoU9ofa1O+pYmZ5PvbCf65LniT8lgax0I+2tJbHQqkhdK4OgI3rzWiPhLKz8FkqJtR7RLBzUmnhDSyssdFY6srG7zNFXvfC4GlncNBwLIBigGWRAL3zIXgDfaG22kAN97rUesSyUpL0y0y4WjPAzRGHd1doJu09iOBZAAlConwADm5Bdj3qwABKG9jDzBGk9IvfQaTsqu/bQpV1qwV393FG9cL8c2ZFqOBZA1E1qVgHwMUgV/MEstKN0JCxAms1rPSJYWKy13ZTWOyosdE0mPzpLXjuqF54oEZ/S21kAVUSaRw+KYEiTGspC0W2gIEfpZ6HOpcRSsRQasRjIFBaqGzhIwMWc/gcstM9NZwEWPghC1XYoC+0K4HzpQSjUZz0CFtKm+W8jl8symYxTLoWtVsuaJ6SsEdVCakcBGXP6H6wROycL0FRjPEUX3gSyADatOOtb9zjrEfZl0T1ux0Oz1xVRbEd79XMULZH9QENsx/fGFzwsKBHq6uMr0psIZAGoIXefhTHKeqT37uL2sRF8SnazqQVs9UIc4lP2y0fkh9nxslzelsvyfLrHnD0s5Kp1xeUOt5sijAUwxpvzj0BxvCdzTWVBuErBCbEmsbCQgK5eiENiTeEsFF/XdutTs/eJj2/HhYeFaKPVuHHBLt0ZyzAWQLbaV6sCW0Q79R+NBS6dZST4GHQbfoaeJLp6IQ6JQQeycJrY+qbXSIDEtJk0TYRxiRxvOiLSYSyAHJHPoAaz466Uo/UATtxrKj43lRVmyeuGlJ2i56aCWChZ1y4HBwvRyqxd5EImXsshjAWg/H3xZeB4upkh9AbPlr6yAXTO2gw/E6sXgnLWdBZmDFUJbWUhWtqq4rmcenbeBbEAEqb+Hgswy+5aS1As1GdIrDo2ECos7D2hQzHTS16J1QsfqWUZrTr3OPhYqN4G24PlGXNq6CAWQOGMf4RwN4PL2upgoTaXpBxful9EbI2bvsu+WvKoJ0ugd06FszCP0WunnYVolFhidKwucXbo8hAWYCLMv25C58ZVVwFZUCuwMylFvEu+ZriiPWztqxZ+JniSLQuD177OPQftIFmIosXKQQOz+pghLMC3/dGv1yEXsEi4sIFxx+3sJdttcaA1xMXWxHNVKXwFNA7n2K7NoSyMDK1wdydFdncucSxE0f7CrdantGnpEBaUI2T8Av/S8TBoNfEeQe6VUcLP0Z7iSb5k8L0y2h7rakLHt/VmdipOp9lmnYwZbIvsYaGSzdimHMTUVNMBLBRYm0YTR332QCw499Blc4DCMaiFPH6jdSAL6tZYIW6G4b0/tm+kn4UoOtyExcNMDRgCWEgIAQHl2+3xmaFYcEQeWfJSC1F+DWsQzNCl5oEsKJ1os4vV0vLFHXUZHVNDOZg/iM7CCOf02sR6v6FYcEQYKvX+RGEbephANvCee3hKD48d6xGFhUpOO52GTO/eTmdhE8yC3mzrLkOxYF8k2PWBQuVyBZ5ROHwvDlASxmKX/UxkoVoqrtJvc9JZIOcV28dh9cQGY8GaknhWPzsa9qGEY49DCGUBetnOWB6ZhcrSmyrvsV6zDFjA/dhFoOXY/Ggb44OxYNtGV33F3ZO8hCqFePjeXbCvjTsHFsCC3utFK5oFLOBm4hKsFhyNOQZjwRZuyprwc7Toc1olOtAUBbKwBSF+9zQHsRDtYeBCW7TB9+JK+GCRLU7ABbbJHo4Fs9fnPfxcvx3hKAzf6xO8vB7LJIyFKHdvQyxQ39sK3C2Fy+HDbgC2EMNwLJg9gHkZ1Z4kLSep8zR4D+BW9fpa7QeyAGMX2u0PmGI1IMDExe7th5rE4pgPyIIee6yrnytfs99ZZOiYYy19WfBsJghlAdZgqksBsFMwpZcwuICdOcXCMD8ekAW96rEOPyc9zy39wJkBw+oFmE5SjUdQP43pWgj7+2J7FkHPw1I0PSQLWhWDGPXwJB/ygbNESpQNF8wCNE3VT8A8IZJvYOLwvwAoJYvSG5KF6AtOPbuF5CRVwTwk69AJLGyckwUlmIWT8/bg13b3P4eeL770pYQ5NeO1GpQF7eyx3kdVfuTsMTBZHl39Dr2gBRiAMdjdxQNuhcIf1TiHi4TxXg3LAupMQrx85ExC2EzDHct4h72QOj/p1n/tnJLav4DpNkMMw7JQKaU3ovChs0phmagzmPEGP0JfCZSuwx13gVunCcE3JfJpeKIDs1Apvreh8KkzjGFbqoDcVO6tDfU0SYFeYtcEw/UEtSvr+eNg80k9QjU0C9/wbHNYLcRjh2Zws3D6E7t3ScGWJobSgeVUwnSeD8nrwSrY4EcWKafBGMpncBby+D0wYPfZQwmsZVG2Z8uJlQY3C2vBuEwtB0pVlO3gMmBEmrfwU66eYrQvU9lu/4X7I0lNJOGGCqOKYXAWon3PSOMDBUY+DDCYBaW5dzWx8fIM64BH8+J8cde43d9uIeOkPLWXzQ/nm9rJwmIfqkd7C3G9HGez2aZcruKmwvK1HIC+3G6Txiq+hWh4FqLFG2BgjOhCNBJa+6o2/W/2jMlHbKSaZKl2pdBZiNur6r9t7CUuzU4WlgSUXqh0L75ut3Q+dcAc243LIrBSR/NAPsBCtAitZmtRiENQCGbBchiIWzQW5shrre+zDqEmz1HAbRH4yp67QG9F2yjxCRaieU+bgaUBC0TUY6/MjACDxsJWdF9SX2XNIXRB+OgTBr1eSq6uEXA77al8hIVoFLQP4inBzZzD99Ad8TBoLOCqjVzHgnScVHUPhMIzIeiTpjR4V2r4PsNC3ZIgWClkNEsZSI+9tVvMdvv781RZ2CGu483Z41bR+3hoFzYIgQAIMUFTi3K+hYLkp1ggdlgAKHBKLEWVPnvu53rdsktUFkbdV3F59Vg/3pMtRTMM+GIHLJ5TcENlqj7GQjQfB6gGlu3CTIVG+vXiOFm3v6nTWnkYf9SJPSX2PZQtCWP/pvXcsSW39kuabh5g/4avwsIpSrISZt8+x0K1CHOq1cCxHVjsErfnggdEqip1uoytx1o3nZtqN3OclCfzHT8tU/tp2PVhZsvueMBhZR54V12ZPBTkDpx2Ts3Q1JL/AeelwxBD2vNxvWTS3ihz/graBhmW3Uhd983vAxJ4i8UxSbnMnn0IhJSCpePVbb05+fah7zdJ0x3zHh24nyIn0kmJDAzl59vr8vrKeLVur+w9qtxxhzc8LsqNFiu02cCyibfrzAclPxTb82Zz3p6KRY7Hc344nY9luV6X5XFWLKhcz4vT7Fx9aUFrfvCN5JAITMdnniVkz/lXvp3M17Efh2p1TMt/9V34FU0qo6y2jmwc1CBcaPmWX/nmUhll7Jl1ieOXhxYnx9+14SdKXmzWyWqXVjLdTW7rc/G7Mvxr8h/+6xbH2tKtDAAAAABJRU5ErkJggg==;shadow=1;" vertex="1" parent="1">
          <mxGeometry x="-160.59" y="389.88" width="311.19" height="57.12" as="geometry" />
        </mxCell>
        <mxCell id="J4pD2en0OG8J45W_romX-5" value="" style="shape=image;verticalLabelPosition=bottom;labelBackgroundColor=default;verticalAlign=top;aspect=fixed;imageAspect=0;image=data:image/jpeg,/9j/4AAQSkZJRgABAQAAAQABAAD/2wCEAAkGBxETBhMQBxIVFRQXGBoZGBYXGBcVGhcXGRgaGBgYGBgYICogGhslHhkaITEtJTUrLi4vFyA/ODQtNygtLisBCgoKDg0OGxAQGi0lICUrLTctLS8tLS0uLy0rLS0tLS0tKy0tLS0tLS0tKy8tLS0tLS0tLS0tLS01LS0tLS0tLf/AABEIAJoBRgMBIgACEQEDEQH/xAAcAAEAAgMBAQEAAAAAAAAAAAAABgcDBAUBCAL/xABMEAABAwIDAwcGCggEBQUAAAABAAIDBBEFEiEGB0ETIjFRYXGRFDJTc4GxFRZCUmKCkqGysyMkNTZUcnTRJTOD0gg0N0PwFyYnosL/xAAaAQEAAgMBAAAAAAAAAAAAAAAAAQMCBAUG/8QALBEAAgIBAgMGBwEBAAAAAAAAAAECEQMSMSFBgQQFE1FSkSIyM0JDYXGxI//aAAwDAQACEQMRAD8AvFEX4mlayIuncGtHSSQAO8noQH7RcZ21VCDY1UX2r+5efGuh/iY/FWeDk9L9ivxsfqXujtIuL8a6H+Jj8U+NdD/Ex+KeDk9L9iPGx+pe6O0i4vxrof4mPxT410P8TH4p4OT0v2HjY/UvdHaRcX410P8AEx+KfGuh/iY/FPByel+w8bH6l7o7SLi/Guh/iY/FPjXQ/wATH4p4OT0v2HjY/UvdHaRcR21tAG3dVRADjdVhtlvalfK6LZj9HGNOWc273/yNdoxveM38qlYZ3TVB58aV3f8AC6kXys7aCtM2c1dRm+dy0l/HMrR3Z7yJJaxtFtC7M52kU2gJdwY+2lz0A8Tobk3UywOKswh2mMnRbCIipNgIiIAiIgCIiAIiIAiIgCIiAIiIAiIgCIiAIiIAiIgCIiAKs8WmdX7QysncRTQOyhg0zOBIJPeQdeAt1kqzFVmz7v1qq9c73lb3Yl80ua26nO7wbqMeTfHodAYJSgWELPvPvXvwLS+hZ4LYzpnW1ql5s0NMfI1/gWl9CzwT4FpfQs8FsZ0zpql5saY+Rr/AtL6FngnwLS+hZ4LYzpnTVLzY0x8jX+BaX0LPBPgWl9CzwWxnTOmqXmxpj5Gv8C0voWeCHBqW2sLPBbGdQnePtDkpvJKQ854vIRwYfk97vd3o5S82SoxfIi22OMQy1vJ4SxrYWG2Zo1kPzv5erx6rR1F2Nl8CNXXFr3cnDG0yTzHoiiGpPa42IA49wKqlLmy6MOUUaMFGTSmabSMHLfi99r5GdZtYk9DQRfUtDtdryHh0RLSDcEaEEagg9i6GPYm2arHkjOTgjGSGL5kYN7nre43c463J6dAuaoX7JdJ8D6r2exDyjAqeoOhkiY8jqLmgkew3XQUf3fMI2Jog70LD7CLj7ipAuc9zrx2CIigkIiIAiIgCIiAIiIAiIgCIiAIiIAiIgCIiAIiIAiIgCqfBXfrdV653vKthVFhbv1yp9c73ldDsO0+hzO8d4dTtZ0zrXzpnW3RoWbGdM6186Z0oWbGdM6186Z0oWbGdM6186Z0oWfnFMRbBh75p+hovbrPQGjtJsPaqXrap8tW+WpN3PJJPaeA7B0DuUt3iYrmnZTRHRvPf/MRzR7Br9YKGKqb4l0FwM1JTPlqmRUrS573BrWjpLibAKcbbuZQYJHg2HuBecstZIPlvOrI/5Ro63UGdZW9u2w6OjwKfHMWboxrm07T8o+aXDtc48mPrcCq6r6x81a+arOZ8ji5x7Sbm3UOrqCo+aX6X+mzWiH7f+GBfuGFz5msgF3OIa0dbnGwHiV+FM90mDeUbZRueLsgHKu6sw0jHfmId9QrOTpWVwjqkkfQGHUgiw+OGLzY2NYO5rQ0e5bCIuadcIiIAiIgCIiAIiIAiIgCIiAIiIAiIgCIiAIiIAiIgCIiAKnqB367U+td+Iq4VTNM79eqPWv8AxFdHu/afQ5feX2dTpZ0zrWzpnW/RzbNnOmda2dM6ULNnOmda2dM6ULNnOsc9SGQOfKea0Fx7gLlYs64G2tblwjI06yOA+qOcfcB7VEuCsmPF0QatqXS1b5Zul7iT2X4ezo9i3tmsGfWY5FS09xndznfNYNXu9gB7zYcVy1bW6ykZRbK1OMYiOlpbHwJY02sO18lm/VHWtDJKkdDFDVL9HP3xYuxssGFYZzYqdrS5o6M2WzG/VYb/AF+xVqs9bVvlrHzVRu+Rxe4/Scbn2arAphHSqIyT1SsL6B3P4B5NsuJpxaSoIkPWI7fox4Eu+uVUWwGzhrtpGRPH6JvPlP0AfN73GzfaTwX0s0ANs3QKjtE/tNnsuP7meoiLVN0IiIAiIgCIiAIiIAiIgCIiAIiIAiIgCIiAIiIAiIgCIiAKlGO/X6j1r/xFXWqPe62IT+tf+Irp93fd0OV3ptDqbedM61s6Z10qOTZs50zrWzpnShZs50zrWzpnShZs51C9tqjNiLGcGsv7XHX7gFKzJpqoPi1aJ4uVPnNcW98biSzw1HtHWqc/y0XYfms1MLoHz4lFT03nyPawcbZja57B0nsCs7fHiDIMLpcJw/RjWte4fQZzIgeu5DnHtaOtc/cfhIk2hlqpRzYGWBPB8lxe/YwP+0FD9sMY8r2lnqQbtc+zPVt5rO67QD3krnP4p15HTXwYr5s46dyk+F7FyuYJMblioYj0OqHBr3D6EJIc722vwurQ2A2Swgs8owvPUujfYTShwbnbY/o2kBpsba2NuvpUyyqJEMEpfo627PZfyHZ4eUC08tny9Y05sf1QfEu61LlyNo9pKaipQ/E32LjZjGjM+Q9TGjU9I7BcXOq4o2nxN4zUGDSFh1BlqIYHnvjNy32rTacuJ0E4xVImKKESbxo4JxHtRSVFI49DiBLGevK+PzvYFINl9oI63DjUUQcGco9jS7QuDTYOtwB6bHVQ4tcSVJN0ddERYmQRRzaPbeho35K6XNL6KMZ334AgaNJ+kQudFtdiErc2F4PMWHoM00dOfsOBKyUGYuaJoihsm1tfEzNi2DztYOkwSxVJt15W2K6ezm2VDWnLhsw5TjE8ZJBbp5p863W24RxaCmmd9EWCtfI2ke6jYHyAEtYXZA53AF1jl77FYmRnRVptDvKrKKpEeL4ZkLrlp8oDmuA6crhHbS406Rcda/Wzu8esrZ3MwjDA/LbM41Ia1t72uTH0mx0FzorPClVlfixuuZZKIirLAiIgCIiAIiIAiIgCIiAIiIAqKqHWxGf1r/xFXqqFrnWxKb1j/wARXU7s3l0OT3rtHqfvOmda+dM661HGs2M6Z1r50zpQs2M6Z1r50zpQs8xGtEdIXvFxoLddyAfuuoZWR5Kl7YzdvA9bTZzfuspHjzC7DXZfkkO7wOn339ijHOe5rWC7vNaOu55o8TbwWl2l8aN3sytWWrg7/INzEsw5stUXBvA/pDyTSO6NpeFVtLVvjN6U5XfOGjh/K7pb7LFWRvlnbDSUGG055sMQcR3Dkoz4Nk8VWtLTPkqWx0jHPe42a1ouSeoBaGPZt8zoZm1JRXI6ezGBTV+PNgpybuOaSQ65WAjM93WdbDrJHWvpjCcOip8Njp6FuWONuVo95J4km5J4klcDd7si3D8GyyWM8lnSvHXwY0/Nbc95JPGwlS1suTU+Gxt4MWhcdyothawYhvOqauus7kmO5Bp1DGh4YwgdYaSe+QlW6vmfBsTlwrbFzmNuYnvikYdM8eaxF+2wcD1gcF9CbPY/T1tAJsKkDm/KHQ5h+a9vA+/hcaqc0ad8iME0009zJjuDw1eFvp8Qbdjx7Wng5vU4HUKM7o6V0Wyz4ZvOjqJmOt85j8p+8KbLxrQPNAHH29ar1cKLtKuz1VTvS3hPindQbPuIkGksrelpP/bjI+V1kdHQNb2nW22N+R7MT1LPPa2zOP6Rxys04gE3PYCqR3WYZ5VtxGarnCPNO++pcWkZSTxPKOafYrMUVTk+RTmm7UFuyzt3GwbKSlbU4o0Pq384l3O5K+uVv09ec7vA06Z4iKqUnJ2y6MVFUgq+3lbCNqKd1ZgrclXHz+ZzTLl14dEg+SenSx4EWCimMnF2hKKkqZWO67eGah7aLHHXmt+il6OVA+S76dug8QOvzrOXzfvFw40m3M3kd2AubNGRoWl3OuOqzw63cFfGyGM+WbNwVWl3t5wHQHtJa8DszA+xWZYLhJbMpwzbbhLdEG39N/wWlPHlSPFh/sFl3DNHxbqDxNQR7BFHb3nxWPf1+w6b1x/A5Ztw/wC68/8AUO/KiWX4SPz9CykRFrmyFwcT2xoafGW0lfMGSutoWuyjN5uZ4GVt+3s613lEdq93tHX4k2orTIx4Aa7IQBI0dAdcHXhcWNu4WyjV8TGWqvhJci8A00XqxMgijeAbTeU7T11NCGmKm5JocL3c92flLm9rAty+wqSKWqITsIiKCQiIgCIiAKgcTP8Aic3rH/iKv5UDif7Tm9Y/8RXV7r3l0OR3t8seprXS6IuycQXS6IgF0uiIDxwu0h3QdFzdhMP5TbikhfwmDj/pXkP4F010911L/wDIMjw2/JwySDvORunac5Wh29VDUb3d/HJpPMZwWfF95NU2iNoonCN8pF2xtjGQgfOcXB5A43PQNVbWzGy1LQ0uTDI+cRzpHWMj/wCZ3V2CwHUsuzOCtpMJbE2xeSXyv9JM/V7z3no6gAOC6y4k5t8Fsd+GNJ6nuwiIqy0rfedu9NXIazBQPKLWfGbASgCwIJ0DwNNdCLaiyp2iraqixQupXSQTMNnC2Uj6L2O0I7CLL6qXA2q2QpK+C2IMtIBZsrdHt9vyh2G4V+PNSqWxrZcGp6o8GRbYjelFUPbBjobDMdGvGkch4DXzHHqOh67kBWQvmbbLY6ow+qDaznxONmTNFmu7CPkutwPbYmxVm7mNq3z0j6LEHFz4Wh0bibl0V8pB68pIF+pw6kyY1WqOwxZZXonuN/ExGzlOwdDpwT25Y3/3+5cLcJGPheqcekRsA7nOJP4QpPvvoS/Y9sjP+zMxx/lcHR+97VEdxFUG7RzxH5cOYd7HjTwefBZR+izGX10XgiItY2wiIgKN37RW2ngePlQAfZkf/uUt3GTF2yMjXdDKh4HYCyN3vcfFQ3flU5tro2NPmQNv2Fz3n3ZVPdzNAYtiWveLGaR8ns0jHiGA+1bMvpI1IfXZyd/X7EpvXH8Dln3D/utP/Uu/KiWDf1+xKb1x/AVn3EfurP8A1LvyolH4TL8/QslERa5smtiU0jKF76GLlpAObHmbHnPVndo1VftttrjVI1hqKaCnY+4a4HlzmGpGa4ANtdW69tirZVa7+P3Xg/qW/lSqzFWpJoqzXpbTJNu7xOap2Op6jEn55X8pmdZrb5ZXtGjQANAB7FzNvJMY8gqDhBpooGMc4yZ3mcsa3M7KMmVh0I4nosQtjdL/ANPqX/V/PkXY2wP/ALSrf6ab8pyPhPqFxxr+FNbpvhHlar4r+TXtFynlHKdF5MmTJ9a9+xW9sz8KcpJ8aPJctm8n5Pyl765s2fh5trdqrz/h/wD86u7oPfMrhWWZ/E0Y9nXwJnhOlyq/n2rrq+ukh2EZGIozlfVzXyF3VGADfrvY9wBBOTfLjbqfZTkqc2fUO5MniI7EyeIs3ueV29hKBlLsZTNNm/omyPJ05zxneST1E27gFilUdTM27lpRV+O7U4/h2JBmMTNfcXaTHE6OQDpsWMa7TiNCLjrCtPYfaQV+z7ajLkfcskaNQHtte3YQQR3qB7cOdjWMQ0mzAEkcJcZan/tNLsugf8qwF7C97i2gJVi7L4DFRYMymorkN1c49L3nznHv+4ADgsslaVw4mGNS1vjwOsiIqS8KgcU/ak3rH/jKv5VRt7sxJFiL6mkaXQvJc6wvybjq7N9Em5v0a26r9Lu3JGM3F8zl96Y5SxqS5EPReZh1pmC7hwD1F5mCZggPUXmYJmCA9Uv3QRX2lrH/ADYoh9pzj/8AlQ/MFN9zo/xeu/kp/fMtHvD6D/qOh3b9dfxlooiLz56ML8SutESOAJX7WOo/5d3cfcgOVsbjBq9l6eqly5pGAvy3DQ8EteACTYBwK7KpDddtHU0WFj4Rp530EhLmzNY54id0OdoP8s217QbX1VsUe1FBLBnpauBzfWMFu8E3B71ZODTK4TUkZNpsKjqsBmp6oCz2Gx+a4C7XDtBsfYqY3GxuO2DnNvYU77nhq+MAf+dSne2O3cTqV1Fsq7yqqlBY3kee2MO0Ly4c24B7h0mwXQ3bbH/B+EHymxnlsZCNQ0DzY2niBc68STwssk9MGnzMJLVkTXIk2JULJ8PkgqxdkjSxw7HC2nUV88UrZsG27Z5aCeSdqQNJIH3aXtHG7STbg5tuC+kFH9sdkoMQw/k6zmvbcxygc5hP4mnS4424EAiMc9PB7MnLj1U1ujuQTNfA2SBwc1wDmuGoLSLgg9RCyKp8CxKvwW9NtHC+aiBOSeIF4iB9zeNnWI1tfoU9w7a/D54g6jq4TfWxe1jh3sdZw9oWMoNbbGcZp77nbWKqqGR0zpapwaxjS5zj0BoFyT7FxsT2zw6CIuq6yHT5LXiR32GXKguOVGI404QYRC+mobgulmBYZbG4OXpc3iA24uBcjgjBvfYSmltxZB46abGdupDTgtEr8zneigbZoJ4XDQ0drivoqipWRUbIqUZWMaGtHU1osB4BcnZHZanoMO5KgF3OsZJHedI4dfUBwA0F+skntvcAwl5sBqT1BTknq4LYxxY9Kt7srDf1+xKb1x/AVsbiP3Tm/qXflQqLb4trqWrEEGEStlDC573t825ADQ0/K0uTbTo7bfndNtzTUVNLTYw4sY9/KNkALgHFrWua4NuR5rSDrxvZW6X4VFOpePZeaKK/+o2E2/52Pwf/ALVwNqN7dEzD3twF5mmIIacrmMYT8pxeATbpsAb24dKpWOT5Gw8kUrsslVpv5/dmn/qB+VKpdsJHl2Mog4kkwRuJOpu5gcbn2qtN8W1tFVYVBDhNQyVwlzuym4ADHN1PRcl33LLGvjMcr/5snO6X/p9S/wCr+dIuttn+6Fb/AE035blCN1m2tBHsrDSV1QyOZjntyuuM2eRzm5T0HzgOu4U/2ipXS7P1MMIu6SGRgHa5hA+8qJKp8fMQ441XkVf/AMP/APnV3dB75lcK+fd1u10GH1tQMWDw2VrBdouWujL9HN6dc57iB7LHhxerxUhuDNlpKL5dS7mTSj5sAHmg/P18RY55YvU3yMME1oS5ke3/AMTjFRPHmgzNPe4Rkfc0+CkWy+ylHU7P0tRiJmqc0THBs0z5I2uygFoiBDNDcdHBdXb/AGa8u2adBEQJWkPiJ6M7QRYnqcCW9l78FVWx23NRhT3UWNQPMbXE5DzZIiTc5b6OaTrwGpIOqmNyhUd0RKoZLlsy9aanZHAGUrGsY3QNaA1oHUANAvTUMFQIy5ucguDbjMWggFwHTYFwHtCrCv3zw8llwillfIdGiQtaLno0YXF3dpdSDYDCKnPJiO01/KpwGhpFuRhBu2MN+Tc6kdgvzsyqcGlci1ZE3USZoiLAsCIiAwupIybujYfqheeRRejZ9kf2WdFNsikYPIovRs+yP7J5FF6Nn2R/ZZ0TUxSMHkUXo2fZH9k8ii9Gz7I/ss6JqYpGDyKL0bPsj+y41NTtj24kMYDRJSR2AAGsU0lzp65v3KQLj4pC4Y/RzxNJ/wA2F9hfKyRokzHszwMb9dSmyGjsIiLEyCHtREB+Y2BrA2MAAdAAsB3Bc2u2boppM1dSQSO+c6Jjj4kXXURTYo1MPwyCCPLh0McQ4iNjWA9+ULbRFACIiAKBbw93sVZSmbCmNjqmi4sA1sv0X8M3U7x06J6imMnF2jGUVJUz5VwnEZqLGmzU4yyxOILHjqNnMe0+0HiOwhfSey20MNdhDaihPTo9h86N46Wu/wDNQQeKjG8Xd2ytvU4XljqQNb6NlA6A63Q4cHew8CKpwnEa/B8czSxujJ0fFICGStHURobX0c29r8QSDsyrKrW5qR1YZU9j6UQjTVQ/A95OG1FODJO2B/FkxDLHscea4dx7wF3cK2gpKmd7MKqI5XMALuTdmAB0Go04LXcWt0baknszc8kj9Gz7ITySP0bPshZ0WJkYPJI/Rs+yE8kj9Gz7IWdEB4BYWb0L1EQBERAc+XA6R1Xy0tNA6Tp5QxsL79eYi66CIgoLVrsNgmZbEIY5QOEjGvH/ANgVtIgNKhwimhP+HwRRerjYz8IC3URAEREAREQBERAEREAREQBERAEREAREQBERAEREAREQBERAFjngY+MtqGtc09IcA4H2FZEQHGOyeHZ7mhpb9fIRf7V1aeBjIg2ma1jR0NaA0D2BZEU22RSCIigkIiIAiIgCIiAIiIAiIgCIiAIiID//2Q==;shadow=1;" vertex="1" parent="1">
          <mxGeometry x="-81.9" y="482.35" width="153.8" height="72.65" as="geometry" />
        </mxCell>
        <mxCell id="J4pD2en0OG8J45W_romX-8" value="&lt;font style=&quot;font-size: 18px;&quot;&gt;&lt;b&gt;Frontend docker container&lt;/b&gt;&lt;/font&gt;" style="rounded=0;whiteSpace=wrap;html=1;verticalAlign=top;shadow=1;" vertex="1" parent="1">
          <mxGeometry x="320" y="340" width="480" height="240" as="geometry" />
        </mxCell>
        <mxCell id="J4pD2en0OG8J45W_romX-9" value="" style="shape=image;verticalLabelPosition=bottom;labelBackgroundColor=default;verticalAlign=top;aspect=fixed;imageAspect=0;image=data:image/png,iVBORw0KGgoAAAANSUhEUgAAARUAAAC2CAMAAADAz+kkAAAAb1BMVEX///8A3P8A2/8A2f/1/v/6//+79f/m/P/p/P8A3v/w/f+R7P8g3//F9f/5///u/f/f+v9s6P+v8v+n8f966v/Z+f9F4P9Z5f/B9f9V5P+d7/+H7P+28//U+P/N+P9z6f844/+g7f+D6P+X7P+D7f+pm44WAAARRUlEQVR4nO1d7cKiOA+VCgpS5VMQUWSeee//Gl/apl/QAuOOCrueH7uPCA4NbZImJ2Gz+eKLL75YKQ778/HSxP7piWv9+Jhds13s//W7+iyavHUQQVDlu8OfXOnFYYkRA06Or7rBD+BcIeQAiGSSizfzyuhaIHltd3EVv/RO34hMGRcMDl/nrKQ4dwaXOunL7/ctCHsDg9GFU/Nln/RFwq7M3nLXL0ZmGhqVy+jwDrlRJuTCy7tu/XWIFYWCkDZS1DbWy9JAO1O7Nvgjdb1IVDAWVOR1WD9aXXnm5gHGFVJFEpR1lmZ1wX/q8eYx/HU0MJLg5tLP7v5aOYpcsGk5ZOoZweMYscPejR9buyHiD11dK/eHoxjquq913USV2lV13S7sG5S/4c5fCB+GcdUPE5MrtYvust6x/Apnrn5hDd+9+LZfjCsbBR58EZdy7I66iqRz000jt3+Zi9lXu1fe9MvBFpDRxbhIK6NMpVyZQybtwZyfdS8hD6bK3vit9EhQwo64wvbYvJmzY5l8K8KRPdnK8nUjVAhqiYmO5efKLMjNhpnn7ZpdFqZWUGj7/iDMDerm012oYGTfDjzQ6hXLDxuC3YXt5MZdMyzcWRSM+PQ3ZDJqqwIzNMGY03UMpCoZU7McdyaVn799q+/DqaVDwKMxNF/6J0wo5cAeq4gDVT2vES4bQTEeS3FLVSxTRtfHbD7NjVstDyAVmwkSeCguvlUz898smFSeif8uAwemA8rJE6UpqqdO9ZhpxqPLbNGYK5WdsoJG7BUDc/SCf71UGlXZBueJs/8jUmFWRSiWYCLr89+QykE4b9ydGx9wtXa94jrTNshruablKnfi/NVr2zmWWcgiEyGlUZflUKzeX2ExomLkufJkEfVTuN8ytssBL65ar1S8SY8/5XJgfgr3cke2xOv3+Cd3h9wm80EKJWO3zyzstObdIcQbkW2IEWwM5Xo48CNWbdpMhGxWAIiy2vgVFRdBJA7xVKPVnGf2SPBakI2GiLjNcdS5dFTVrwH5ZCBr8YDpblaNO7NqFdl6c0AOsgaR8ct1AJzbwvSdD44+eriRLxEdwBAhY5LdK5g2fvGNvxZs5APT7LkHXyQ5WhwE5Lzuc/cHxpirlso/uH23hOkd1L7p/l8DGPpdHnGbLEwqPCAxGdCdgqtHmDWKPWpWH7bdCCN0ox/OaVgFAxbLlGQox7AMU6aSr+s3Qdx3RYm7C9s/E4dBOG24A6WzahO02eyRHNWTAtFFA399elz/ELMngsSMK9acZj7d62JKHE6A27aqyoShrKqW2KQp4RT1fZ1B/jgsHMPQlNmAknO87xwU9yTtr3dyD5G/j2MZ9jfzS50iXB0PzE2roe0l48NFGXJPH485qD53W+qwLLBBNt2BKl1TRM6v8ZCO3blr+e1OCBjAhZzgze74frr7e3+/PVpnMPUQwvVaKh7Oj+GcR1XacAcewm+T/NCkx6k7NFlrWJCPqVTJEhCXukxgaHKDuOffTM1+l58opwMEpfR/AJVLl4uvy4TUd8Bf4hQeVJnm5fA1JEIthy37sTzo/SvlkteRF6p324kk74YOrEeuRAZDHUHVU0DgKbebzUUXjIG1uxgcVSYKckpGx6511iM3LTbemwq+2LjTViqbIPdWqisJ4WUWVLlqkUZnHLg3AZx1iIgAAXdm3DXUFK4Lv8TVSFwrjwGhfIFm+lyoMsmkK8KJw/RZRizgYkhyeYfoMDwI6jWgPycXEEd0VeVSLE7rqpxirDtXD2UJ5WZXJUrzqsVtld968TeNuF8awvtuphDcg4UxK2VpFHKuvZnMl1B3+GxUtfsc9j0kklLrDi93WrppEMG/0ZsR7lWpCVhU3OUq7+sxcOMZZ4uGnhLTwK6a/9ErLAQaB5EjBJyGWWtfFoksiXGabsUcNoWDck7YuKvrgUPjChJstZQAbJpQw6P7pnE3Yv1uFzNbeArHluKAdePsK1V3AgZC6f3MAZR1Bb8SmE26mC7bhVhonsJwkKWo1oOn3BpmeT0USk+hcpXVjlOEhGab4kq9CVwhOtanlGnbFzWFfDQJpTtTSQqcWk3tWM0MJ3nP8ppfDm48g7v1lEhlvqkz6lRYpKLSU27qOSMcJ65cllDZ6/Fs19h6VmjGWsz1YotDakF8ZbKM8nGPBpF+CNyujJrERhmXqnwMqhbOUhXuTrl6NCrJtxP2Wfsu1DYvQoN83OpUEVHIIbDq5MpiqgmdAWp9kuD9cjDNYKWoAISF0KbKfSSQrzp6YrJMBWWOI9n+dyJij3uSI8AHq51oVSv9VYBNV5sA2f5P8zhiPGdmy5iA5tKkI1LRDAmYIfRr6p9higp/OieyB6Ln1Hn1P5IKV6OTCgOI23NCWq8EOOTBhDH0+Gi1XKjFhxuuIOHvTASWPFhBH69gBbU/oQaltr0pR89WoejUUnn1xN7vNssgvgFgmdvxpygsM1InS2S3zBqfW0yVCY6TWyzFMsPzHg/Eql6cOlkSqxenBhuUbj/jHgDfai4gUsnTE7eRc9TCQnWyWBWLqlY8ZUaNMtVTJQf7afB5MKJaDrbd4aYyi0Wz9HpjKLsrIpiqiyBCiUoNqyrsRRIU5snZMlkUh8PlDFT2X+t+iwtvIf2NXL5NsWk5HnWqnOHAriaxaNOJ18pAhN9WHC2Ki5ZSTyW2M6gyxsFEhBK2yBr91hCM0zQ3RPrQI4IvjRtiXxq5z2+YAXL3Zuz8V/ej2dqc6jfZQ/oi4W1qYjBYxkKzVDZZWFBKSLruBtoEBNzIskh6OVGKm9YoodcV7A5HcyH74Qo5K92QFtWP8SYfltOnH91llizmotNOOIS0KSljiPVybDBgEqIGtds3MX6u/Ntj7sEH0KiJzVDbh0A6iJoGvknszfNTE5Ytbstr09tPcV5H2P8hjqhWU7mLsMkqIsX10OeL2rbrwO9/Xmj1BLIOqOFpBkvIr9V+e2Zd/2FctV6KCX9uoBmgxVtmUrhW9OIPvSV0LLV/cUHJVBV7vXskvlJfrNfLjBcWzgkMxXBuC59VglB81Xia4w1+Potep1GnTfewXRaapOmNdAycHMhdENg24U2ctXrKPliU7enDrXsdWB3u0IpTeKpxOk3Od3tSvcLPtjrDGQXDJoQLg6YAHbF9kbY44t9MhZz5nlJJ1psiD8jJPx2QnIP9kJndzfp8twd7zRXuVPl6oqvag3/Lh8USCgFv6Yiy1kS7b5Nw57se98xGIzIqBdVz/V2dYBOVX2/0ungcS0NlIWvI//Pgn8dGJDL2jx9Wljf8MadcCFflD3BIW2MRi1IJU12a2KQnD3GzE3sb24+02adzYU8iSqvhgHpzB21J5RRuGTAOnO7IZElZm61Bw1phj+IbBDS7NnHldYce8AjxXyjHpG/6MO+bVwYgCZRefH20RqU5WyBBkWe+B/vmxTAln4JalO369+ujwsEfLRUqD1w9sjN7x87FEE1YHYZ9QaL4nuVlgfG0YBAuiqRO77FibNgOfOV9Etj+ztDCyN0L7x0zaH/RoSeGVzBx+u07bv5lYMrRyD3ysOL5e657iA6uS8QA+SWEjTkOCAKvxc03IaImyML54QmRXoqaZ4gsKQyI9C8sQPtHONqTFRsl23cbXGJPEoL+XmjgbRYmWlOJVxJIbXwWHXws1/wLGrBAdNKWzjuJJmBcTYheaVY+DPSLWwQt/UmwzvN2PsleCIEZX/7uBmRvvAe9BVfchxJU40jnedFckLHMRatOe4gA+FFLybE/ASAjjHWeF40oyZLIJzQtAeRnV9z1F0pMRzlzgmGRzOvkyumJH6dJPg1WtIuKUR0g+pRW6rSZOn/NUpnVj59TTwQtZ/x0kMqq4rUa5kmlVyw2pUf/I1LR3vSBLNWWEv8VqUCJBLO4k1zZcu3bw1nalkDwcWdwZVevbU8zLDNBrqygamq4q7fMM7y4Dif9TTnFuGKB/gIr9uKmPf4OkWaCnNES4I2oVVyxx8/fSzY2zLt8A5f4Y4yMcgYNvuLd4XTfVVn64zSSSTwSwm9GA1mrAMTirJwMV3uznydzy63VQAML7PdrbvgtgE5MNtOsvAWyogEWYYxQYJtf82rXlg1wz4yK5SRZUSgB5am0tymNOprzmFesbMV8N/FIj9L2KFH+i/L6w6thioGmal92x+8Ar+MeUE182awSOepyiBVhtYOQ3AmSZGsO8W8EcbhnMjSeeY8pe5LleAiVPfIBpyWvmr0ih6GmfGKVfmqwsanS1AtV6pW818sSKgv/CXg7MzHnfY1JaH6RrK92XEHBD19h4hVM66avbJS4rFP+ysIy2Grc+4elXi7TekwihKskEdJcdTKIwZM+SZ+3glr7M496rYPVaycDUyvAXXudoTLOIBvdy9wrC/dn3R4cx87Yar1XWmXCpTCSStfN/hI49nlNnZ4I58RdvWMZ9C8N1szR0LBP1JKvTu/uZkfSzqSrvxJrSNYbrx3iXGNgWeNk94fK8p6VsJ1qwwX0hfi72DeXy/H+JMv8cL7fz6veEX7xxRdffPHFF1988cUXf4b98Xa77RbTxsmOHS/xIVU+ZX75Byly4974t4N5Q9JLBQE6XC+9gnenRkNIzfGze9woN9YUhYgmpDckHCzzAMtr0aODSUUW4aLgueeYYnOXZxLkp1Kh0X7+z6Bg2QEGKpWCgQbgniubJHmBUan4VOb58X7OSehl4UF/IhWerHEzOlueUS3JlFQI6wVetEL5l8vmmVKpiOQwSY0+9SKFSankSOYPwy1C20WH/XWpEP4AS1P4Nd5uUSWi8+ek3XYHWtk75VeFttugJKHq4y9CCMS/fg2D+VwqRN6cbRdlaZotOpqrSyXkn1LQvVwt1lwZ88ZdR4cfaF3xli4DoZ9LhfI10O9Fy0JCkwptv070CtECzFwgWlbGP9OhES/s6MgzWl6ANiaVeMsTKMcVBHOpVH43R4KcGCFCiSP0JFTdvV13gNBxDuT/Zez6V4dl5ekBnHn+/8gV2e2HhvR/foZcIGGZRdEZcpIFvAJmHDvhRsBMILRYohppL0FiLrqZdK5wwHoLloiK7Rc5la6tnFzG1Ma4v+LJ1nQIFavw4uT9VntWKAgMWiIfQleJ9tQ/9R6Iuhot4jTLc1WH99O0DequVVpqLa4pZw9irpCbxTV9hrTfA9OyKRI1Ue4h+ymYA0berasTj2dIpbNrSlZx2SwFpleOF7rsMXuClHOb/BAQPi3p++DtEryFNVbSCmWdvj1LKh3iC/TUWjYpWdggWpHLqJNHRdd0f229zZ1OfiEV0v/2Oal0OO0oL2ryZTGfhLTM9N0S1BthUtkKHKKA2ugyO/8PzZNK1FxSqp65VA7NRZJfiFi27xjds1D8FcqEJBVfVCrq86X7XapHciqVvXCBOXpSIT49e6EJ+VEcba5k+QkXjtjz7ZKLHRSpHDDzyRibuvfyNdhKJ8wGYbG39nGZXP3+nvk34m8xJJcW3qbZqqqEa6vFQvVtKQuUEJMKxLf6ZZmHZyoEaohJAR75hrj4rN5nR5TPuS+VC4JyBg/8QsbiBbN1XXwoQfP46X4miJiDH3ob70p65l1ZfcIRmgST8VAjRF7dfsaMSxsyMfHwwIna3zC+EA1Cmbusfqa8nc9pSfX6ov04TSq0a0i3NKgfioqkgCXFWiOUYFSJ/0K3kUHCXll+B1VdlGIfVEs3CMqlKmnYno5tvQ36npmtoeNmX3BDjGgJIh+SUwcQMMrZEQdecxDDbpH/kPTvOb3dVVpmo8mesB+GLpVNTm66dTduDY3fHtSSuAn91N43pE0ljaLcMHvwFVsKKWsqJwzLCX4A5YJQl7Z8310tfntow6lJ07QRu/74lqa9RM69O3QRBtztPh3VsKNHfkAPG8THlPzoooOTX3zxxRdffPHFF1+8Ef8HiaLEkg69+7oAAAAASUVORK5CYII=;shadow=1;" vertex="1" parent="1">
          <mxGeometry x="360" y="388.5" width="217.64" height="143" as="geometry" />
        </mxCell>
        <mxCell id="J4pD2en0OG8J45W_romX-10" value="" style="shape=image;verticalLabelPosition=bottom;labelBackgroundColor=default;verticalAlign=top;aspect=fixed;imageAspect=0;image=https://miro.medium.com/v2/resize:fit:700/1*cQ8JTEvKMKaBhovYI2mncQ.png;shadow=1;" vertex="1" parent="1">
          <mxGeometry x="620" y="420" width="142.13" height="80" as="geometry" />
        </mxCell>
        <mxCell id="J4pD2en0OG8J45W_romX-11" value="" style="shape=flexArrow;endArrow=classic;startArrow=classic;html=1;rounded=0;exitX=0;exitY=0.5;exitDx=0;exitDy=0;entryX=1;entryY=0.5;entryDx=0;entryDy=0;shadow=1;" edge="1" parent="1" source="J4pD2en0OG8J45W_romX-8" target="J4pD2en0OG8J45W_romX-6">
          <mxGeometry width="100" height="100" relative="1" as="geometry">
            <mxPoint x="160" y="460" as="sourcePoint" />
            <mxPoint x="260" y="360" as="targetPoint" />
            <Array as="points">
              <mxPoint x="270" y="460" />
            </Array>
          </mxGeometry>
        </mxCell>
        <mxCell id="J4pD2en0OG8J45W_romX-12" value="HTTP" style="text;html=1;align=center;verticalAlign=middle;whiteSpace=wrap;rounded=0;shadow=1;" vertex="1" parent="1">
          <mxGeometry x="240" y="417" width="60" height="30" as="geometry" />
        </mxCell>
      </root>
    </mxGraphModel>
  </diagram>
</mxfile>
